Coordinates
version=1
nRows=8
nColumns=34
inDegrees=yes

Units are S.I. units (second, meters, Newtons, ...)
If the header above contains a line with 'inDegrees', this indicates whether rotational values are in degrees (yes) or radians (no).

endheader
time	pelvis_tilt	pelvis_list	pelvis_rotation	pelvis_tx	pelvis_ty	pelvis_tz	hip_flexion_r	hip_adduction_r	hip_rotation_r	knee_angle_r	ankle_angle_r	subtalar_angle_r	mtp_angle_r	hip_flexion_l	hip_adduction_l	hip_rotation_l	knee_angle_l	ankle_angle_l	subtalar_angle_l	mtp_angle_l	lumbar_extension	lumbar_bending	lumbar_rotation	arm_flex_r	arm_add_r	arm_rot_r	elbow_flex_r	pro_sup_r	arm_flex_l	arm_add_l	arm_rot_l	elbow_flex_l	pro_sup_l
      0.00000000	     26.67103085	     -8.65964638	    -12.52992624	      0.81550425	      1.04417684	     -0.39330547	    -28.94189577	      3.29032558	     -0.22798514	      0.00000000	    -11.72693166	    -35.00000000	      0.00000000	    -30.00000025	      0.18596661	     14.15915024	      0.00000000	    -12.43592560	    -35.00000000	      0.00000000	    -44.63062425	      4.24175574	      7.05140316	      2.22292557	    -11.27649040	     36.14954197	     20.94216119	     26.06219048	    -13.57855630	    -18.90785687	     63.44101210	     49.46622882	     23.30820164
      0.01666670	     27.07526214	     -7.04833225	    -12.01988211	      0.81011420	      1.04294558	     -0.39359519	    -28.63933851	      2.17124335	     -2.03211931	      0.00000000	    -12.63789619	    -35.00000000	      0.00000000	    -30.00000025	      1.62973958	     14.03571418	      0.00000000	    -12.02586476	    -35.00000000	      0.00000000	    -45.13564698	      2.35068897	      5.57652291	      3.84500530	     -9.40745411	     36.22007394	     17.77986123	     30.31731537	    -11.87645881	    -19.61497802	     67.60267743	     48.60899491	     26.72970903
      0.03333330	     27.16430204	     -6.93920213	    -12.78428032	      0.80641188	      1.04095923	     -0.39170395	    -28.37101846	      2.00438679	     -3.06346518	      0.00000000	    -11.88822642	    -35.00000000	      0.00000000	    -30.00000025	      2.23100571	     12.71672389	      0.00000000	    -12.22865026	    -35.00000000	      0.00000000	    -45.91355769	      0.79498474	      7.96360469	      3.57674339	     -9.59044421	     36.19402761	     18.34632735	     43.37095231	     -7.04051031	    -22.18155251	     76.44575404	     49.05799990	     40.34922461
      0.05000000	     27.31179294	     -7.06015512	    -12.47189159	      0.80634363	      1.04492112	     -0.39233576	    -28.33862917	      2.19981060	     -4.16196144	      0.00000000	    -11.80303341	    -35.00000000	      0.00000000	    -30.00000025	      2.04997062	     12.71282023	      0.00000000	    -12.33566808	    -35.00000000	      0.00000000	    -46.90356682	      0.09397913	      7.87723252	      4.17730459	     -9.21141725	     35.98250627	     18.72384729	     43.70897583	     -4.74686816	    -23.01240261	     75.24553362	     48.56170256	     40.66102625
      0.06666670	     27.27851286	     -7.19202788	    -12.47791498	      0.80949059	      1.05249725	     -0.39390374	    -28.34033272	      2.25884448	     -4.47552368	      0.00000000	    -11.93726874	    -35.00000000	      0.00000000	    -30.00000025	      1.92884114	     12.32006907	      0.00000000	    -12.65407579	    -35.00000000	      0.00000000	    -48.03016629	     -0.44951617	      8.42105981	      3.67558521	     -8.59499072	     25.95105751	     20.26755271	     54.66289211	     -2.67158763	    -22.07944985	     70.71740081	     44.93037656	     56.03322673
      0.08333330	     27.40146156	     -6.84389679	    -12.07714682	      0.81079904	      1.05318051	     -0.39276607	    -28.52829715	      2.09990724	     -5.46203046	      0.00000000	    -12.50130377	    -35.00000000	      0.00000000	    -30.00000025	      2.04108453	     12.82473701	      0.00000000	    -12.28982179	    -35.00000000	      0.00000000	    -48.61042757	     -1.18473792	      7.75837632	      4.36991842	     -7.95404441	     26.32101360	     19.89171729	     55.26964845	     -0.73431295	    -21.44042657	     70.31342395	     41.33179587	     55.92945479
      0.10000000	     27.45829773	     -6.70627744	    -11.97802588	      0.81115443	      1.05419118	     -0.39200188	    -28.66042267	      2.00591205	     -5.84049153	      0.00000000	    -12.94670948	    -35.00000000	      0.00000000	    -30.00000025	      2.08777456	     12.66645210	      0.00000000	    -12.28032349	    -35.00000000	      0.00000000	    -49.08931782	     -1.69643464	      7.82869914	      4.83213882	     -7.67699486	     26.66721701	     19.19325639	     55.77969748	      0.83999914	    -20.40945879	     69.47249198	     37.52137819	     55.62693236
      0.11666670	     27.53585443	     -6.50476316	    -11.81026849	      0.81052955	      1.05478183	     -0.39113627	    -28.74551449	      1.91981348	     -6.26064890	      0.00000000	    -13.44206382	    -35.00000000	      0.00000000	    -30.00000025	      2.16409348	     12.55787172	      0.00000000	    -12.39183690	    -35.00000000	      0.00000000	    -49.53067247	     -2.13765202	      7.68613365	      5.21877689	     -7.39241919	     27.03586517	     18.63282423	     56.21030433	      2.25420903	    -19.58914300	     68.12192725	     34.65159206	     55.14679801
